<svg width="204" height="209" viewBox="0 0 204 209" fill="none" xmlns="http://www.w3.org/2000/svg">
<path d="M65.6894 142.043C28.5067 140.312 0.0478516 161.569 0.0478516 161.569L1.09889 163.142C1.09889 163.142 60.105 118.87 118.87 164.363H118.873C131.412 174.068 143.571 177.491 154.954 176.715C166.337 175.938 176.91 170.995 186.4 164.126L185.373 162.535C176.067 169.27 165.797 174.046 154.837 174.793C143.878 175.54 132.2 172.289 119.947 162.806C101.294 148.365 82.5895 142.831 65.6875 142.044L65.6894 142.043Z" fill="#46BBE7"/>
<path d="M63.3252 149.55C28.9311 148.425 3.39453 168.021 3.39453 168.021L16.8242 190.036C16.8242 190.036 56.275 157.513 101.511 190.323L101.513 190.326C129.602 210.693 155.772 211.241 174.075 205.864C192.378 200.487 203.917 189.151 203.917 189.151L188.491 168.903C188.491 168.903 181.334 176.046 168.197 179.906C155.059 183.765 137.046 184.31 114.153 167.711H114.15C96.4223 154.854 78.959 150.06 63.3252 149.55Z" fill="#46BBE7"/>
<path d="M65.6894 71.0714C28.5067 69.3407 0.0478516 90.595 0.0478516 90.595L1.09889 92.1679C1.09889 92.1679 60.1075 47.8996 118.873 93.3892C131.412 103.093 143.571 106.515 154.954 105.738C166.337 104.96 176.91 100.013 186.4 93.1496L185.373 91.5584C176.067 98.2891 165.797 103.065 154.837 103.813C143.879 104.562 132.2 101.314 119.947 91.8319C101.294 77.3923 82.5895 71.8591 65.6875 71.0724L65.6894 71.0714Z" fill="#46BBE7"/>
<path d="M63.3248 78.5779C28.9307 77.4504 3.39648 97.0361 3.39648 97.0361L16.8214 119.057C16.8214 119.057 56.2758 86.5484 101.513 119.354C129.602 139.723 155.774 140.268 174.077 134.887C192.38 129.505 203.919 118.168 203.919 118.168L188.489 97.9236C188.489 97.9236 181.333 105.069 168.196 108.931C155.059 112.793 137.043 113.339 114.15 96.7388C96.4219 83.8828 78.9586 79.0899 63.3248 78.5779Z" fill="#46BBE7"/>
<path d="M65.6894 0.0864994C28.5067 -1.64172 0.0478516 19.6193 0.0478516 19.6193L1.09889 21.1922C1.09889 21.1922 60.105 -23.092 118.87 22.4031C131.409 32.1153 143.571 35.5392 154.954 34.7622C166.337 33.9852 176.91 29.0395 186.4 22.1765L185.373 20.5853C176.067 27.3153 165.797 32.0896 154.837 32.8377C143.879 33.5857 132.2 30.3384 119.947 20.8484C101.294 6.40742 82.5895 0.871549 65.6875 0.0862349L65.6894 0.0864994Z" fill="#46BBE7"/>
<path d="M63.3252 7.59303C28.9311 6.46522 3.39453 26.0566 3.39453 26.0566L16.8218 48.072C16.8218 48.072 56.2715 15.5555 101.508 48.3715H101.511C129.6 68.7363 155.772 69.2843 174.075 63.9044C192.378 58.5252 203.914 47.1888 203.914 47.1888L188.489 26.9414C188.489 26.9414 181.332 34.0852 168.194 37.9463C155.057 41.8072 137.042 42.3542 114.15 25.7591L114.148 25.7565C96.4211 12.8976 78.9578 8.10502 63.3252 7.59303Z" fill="#46BBE7"/>
</svg>
