<?xml version="1.0" encoding="utf-8"?>
<!-- Generator: Adobe Illustrator 27.6.1, SVG Export Plug-In . SVG Version: 6.00 Build 0)  -->
<svg version="1.1" id="Layer_1" xmlns="http://www.w3.org/2000/svg" xmlns:xlink="http://www.w3.org/1999/xlink" x="0px" y="0px"
	 viewBox="0 0 910.1 895" style="enable-background:new 0 0 910.1 895;" xml:space="preserve">
<style type="text/css">
	.st0{fill:none;stroke:#4ABCE7;stroke-width:81.36;}
	.st1{fill:none;stroke:#4ABCE7;stroke-width:6.07;}
</style>
<path class="st0" d="M162.4,222.6c0,0,151.2-119.6,316.6,0c165,119.6,286.3,0,286.3,0"/>
<path class="st1" d="M131.7,168.6c0,0,193-144.7,384.8,3.9c80.3,62.2,154.6,43.2,215.5-0.9"/>
<path class="st0" d="M162.4,452.3c0,0,151.2-119.6,316.6,0c165.4,119.6,286.3,0,286.3,0"/>
<path class="st1" d="M131.7,398.4c0,0,193-144.7,384.8,3.9c80.3,62.2,154.6,43.2,215.5-0.9"/>
<path class="st0" d="M162.4,682.1c0,0,151.2-119.6,316.6,0c165,119.6,286.3,0,286.3,0"/>
<path class="st1" d="M131.7,628.1c0,0,193-144.7,384.8,3.9c80.3,62.2,154.6,43.2,215.5-0.9"/>
</svg>
